<svg width="50" height="50" viewBox="0 0 50 50" fill="none" xmlns="http://www.w3.org/2000/svg">
<circle cx="24.5" cy="24.5" r="13.5" fill="white"/>
<path d="M49.8045 25.305C50.0652 24.8251 50.0652 24.2446 49.8045 23.7647C45.0281 14.9703 35.7114 9 25 9C14.2887 9 4.97194 14.9704 0.195466 23.7647C-0.0651552 24.2446 -0.0651552 24.8251 0.195466 25.305C4.97202 34.0993 14.2885 40.0698 25 40.0698C35.7114 40.0698 45.028 34.0993 49.8045 25.305ZM25 36.4511C18.4188 36.4511 13.0837 31.116 13.0837 24.5349C13.0837 17.9538 18.4188 12.6185 25 12.6185C31.5812 12.6185 36.9163 17.9537 36.9163 24.5349C36.9163 31.1161 31.5812 36.4511 25 36.4511Z" fill="black"/>
<path d="M24.9998 18.4622C24.4985 18.4622 24.0116 18.5234 23.5457 18.6378C24.0229 19.1901 24.3123 19.9093 24.3123 20.6965C24.3123 22.4367 22.9016 23.8475 21.1613 23.8475C20.3741 23.8475 19.6549 23.5582 19.1027 23.0809C18.9882 23.5468 18.927 24.0336 18.927 24.535C18.927 27.8889 21.6459 30.6077 24.9997 30.6077C28.3536 30.6077 31.0724 27.8888 31.0724 24.535C31.0724 21.1811 28.3537 18.4622 24.9998 18.4622Z" fill="black"/>
</svg>
