<svg width="24" height="24" viewBox="0 0 24 24" fill="none" xmlns="http://www.w3.org/2000/svg">
<rect width="24" height="24" fill="#FF0016"/>
<path d="M16.5602 8.60559C16.4895 8.34631 16.3276 8.21361 16.0744 8.20748C15.8208 8.20183 15.6586 8.32864 15.5879 8.58791L14.2974 13.3078L6.21875 5.22915C6.01841 5.0288 5.7827 4.92887 5.51165 4.92934C5.24059 4.92887 5.00489 5.0288 4.80454 5.22915C4.60419 5.4295 4.50402 5.66544 4.50402 5.93697C4.50402 6.20755 4.60419 6.44302 4.80454 6.64337L12.8832 14.7221L8.1633 16.0125C7.90402 16.0832 7.77722 16.2454 7.78287 16.499C7.789 16.7522 7.9217 16.9141 8.18097 16.9848L17.4087 19.0354C17.7741 19.1179 18.0864 19.0295 18.3456 18.7702C18.6049 18.511 18.6933 18.1987 18.6108 17.8333L16.5602 8.60559Z" fill="#EFEFEF"/>
</svg>
