<svg width="24" height="24" viewBox="0 0 24 24" fill="none" xmlns="http://www.w3.org/2000/svg">
<rect width="24" height="24" fill="#5D8E55"/>
<path d="M6.5902 15.3939C6.66091 15.6532 6.82284 15.7859 7.07598 15.792C7.3296 15.7977 7.49176 15.6709 7.56247 15.4116L8.85294 10.6917L16.9316 18.7704C17.132 18.9707 17.3677 19.0706 17.6387 19.0702C17.9098 19.0706 18.1455 18.9707 18.3459 18.7704C18.5462 18.57 18.6464 18.3341 18.6464 18.0625C18.6464 17.792 18.5462 17.5565 18.3459 17.3561L10.2672 9.27745L14.9871 7.98698C15.2464 7.91627 15.3732 7.75411 15.3675 7.50049C15.3614 7.24735 15.2287 7.08542 14.9694 7.01471L5.74167 4.9641C5.37633 4.8816 5.06403 4.96999 4.80476 5.22927C4.54548 5.48854 4.4571 5.80084 4.53959 6.16618L6.5902 15.3939Z" fill="#EFEFEF"/>
</svg>
