<svg width="24" height="24" viewBox="0 0 24 24" fill="none" xmlns="http://www.w3.org/2000/svg">
<rect width="24" height="24" fill="#FFAC52"/>
<path d="M16.5602 15.3939C16.4895 15.6532 16.3276 15.7859 16.0744 15.792C15.8208 15.7977 15.6586 15.6709 15.5879 15.4116L14.2974 10.6917L6.21875 18.7704C6.01841 18.9707 5.7827 19.0706 5.51165 19.0702C5.24059 19.0706 5.00489 18.9707 4.80454 18.7704C4.60419 18.57 4.50402 18.3341 4.50402 18.0625C4.50402 17.792 4.60419 17.5565 4.80454 17.3561L12.8832 9.27745L8.1633 7.98698C7.90402 7.91627 7.77722 7.75411 7.78287 7.50049C7.789 7.24735 7.9217 7.08542 8.18097 7.01471L17.4087 4.9641C17.7741 4.8816 18.0864 4.96999 18.3456 5.22927C18.6049 5.48854 18.6933 5.80084 18.6108 6.16618L16.5602 15.3939Z" fill="#EFEFEF"/>
</svg>
