<svg width="24" height="24" viewBox="0 0 24 24" fill="none" xmlns="http://www.w3.org/2000/svg">
<rect width="24" height="24" fill="#5D8E55"/>
<path d="M17.5001 10.8747C17.6334 11.108 17.6127 11.3164 17.4381 11.4997C17.2627 11.683 17.0584 11.708 16.8251 11.5747L12.5751 9.14971L12.5751 20.5747C12.5751 20.858 12.4791 21.0954 12.2871 21.2867C12.0957 21.4787 11.8584 21.5747 11.5751 21.5747C11.2917 21.5747 11.0541 21.4787 10.8621 21.2867C10.6707 21.0954 10.5751 20.858 10.5751 20.5747L10.5751 9.14971L6.32506 11.5747C6.09172 11.708 5.88739 11.683 5.71206 11.4997C5.53739 11.3164 5.51672 11.108 5.65006 10.8747L10.7251 2.89971C10.9251 2.58304 11.2084 2.42471 11.5751 2.42471C11.9417 2.42471 12.2251 2.58304 12.4251 2.89971L17.5001 10.8747Z" fill="white"/>
</svg>
