<svg width="2048" height="2048" viewBox="0 0 2048 2048" fill="none" xmlns="http://www.w3.org/2000/svg">
<path d="M2048 128V1024H1920V640H128V1664H640V1792H0V128H2048ZM1920 512V256H128V512H1920ZM1755 1152H2048V2048H768V1152H1061L1189 1024H1627L1755 1152ZM1920 1280H1701L1573 1152H1243L1115 1280H896V1920H1920V1280ZM1408 1280C1443.33 1280 1476.33 1286.67 1507 1300C1537.67 1313.33 1565 1331.67 1589 1355C1613 1378.33 1631.33 1405.33 1644 1436C1656.67 1466.67 1663.33 1500 1664 1536C1664 1571.33 1657.33 1604.33 1644 1635C1630.67 1665.67 1612.33 1693 1589 1717C1565.67 1741 1538.67 1759.33 1508 1772C1477.33 1784.67 1444 1791.33 1408 1792C1372.67 1792 1339.67 1785.33 1309 1772C1278.33 1758.67 1251 1740.33 1227 1717C1203 1693.67 1184.67 1666.67 1172 1636C1159.33 1605.33 1152.67 1572 1152 1536C1152 1500.67 1158.67 1467.67 1172 1437C1185.33 1406.33 1203.67 1379 1227 1355C1250.33 1331 1277.33 1312.67 1308 1300C1338.67 1287.33 1372 1280.67 1408 1280ZM1408 1664C1426 1664 1442.67 1660.67 1458 1654C1473.33 1647.33 1486.67 1638.33 1498 1627C1509.33 1615.67 1518.67 1602 1526 1586C1533.33 1570 1536.67 1553.33 1536 1536C1536 1518 1532.67 1501.33 1526 1486C1519.33 1470.67 1510.33 1457.33 1499 1446C1487.67 1434.67 1474 1425.33 1458 1418C1442 1410.67 1425.33 1407.33 1408 1408C1390 1408 1373.33 1411.33 1358 1418C1342.67 1424.67 1329.33 1433.67 1318 1445C1306.67 1456.33 1297.33 1470 1290 1486C1282.67 1502 1279.33 1518.67 1280 1536C1280 1554 1283.33 1570.67 1290 1586C1296.67 1601.33 1305.67 1614.67 1317 1626C1328.33 1637.33 1342 1646.67 1358 1654C1374 1661.33 1390.67 1664.67 1408 1664Z" fill="black"/>
</svg>
