<svg width="30" height="30" viewBox="0 0 30 30" fill="none" xmlns="http://www.w3.org/2000/svg">
<path d="M29.8194 3.3333C29.6555 3.13826 29.4209 3.07395 29.2072 3.1652L28.1955 3.59394C28.7914 2.7083 29.2311 1.78333 29.4626 0.906476C29.5298 0.650874 29.4687 0.367759 29.3074 0.185834C29.1451 0.002685 28.9094 -0.0491701 28.7048 0.0558365C27.2861 0.786489 26.0306 1.42272 25.0322 1.80335C24.9951 1.81776 24.9569 1.81149 24.9187 1.7852C24.1229 1.2377 22.1305 -0.0197855 20.7154 0.00023631C17.1364 0.0808278 14.2241 3.83708 14.2241 8.3739V8.62201C8.95405 7.36892 6.04171 5.50703 2.88818 1.44397L2.3956 0.80896L2.06785 1.5883C0.356009 5.65518 1.5697 9.30016 3.57012 11.7551C2.68364 11.5883 2.03988 11.2377 1.49792 10.657C1.28981 10.4358 0.994609 10.4083 0.762567 10.5896C0.534102 10.7683 0.429779 11.1027 0.50355 11.4214C1.17681 14.347 2.97978 16.7495 4.88303 18.1851C3.96348 18.1839 3.20678 18.0582 2.44597 17.4576C2.2246 17.2826 1.93656 17.3008 1.72997 17.5013C1.5249 17.7013 1.44603 18.0388 1.53352 18.342C2.46122 21.5419 4.19599 23.2251 7.07068 23.6444C5.59288 24.7057 3.67544 25.5444 0.681642 25.6213C0.389552 25.6288 0.131004 25.8619 0.0374131 26.2006C-0.0561778 26.5382 0.0293207 26.9007 0.254736 27.1231C2.07401 28.9244 6.15471 30 11.1708 30C20.1501 30 27.4551 20.1869 27.4551 8.12514V7.91325C28.6169 7.23136 29.5034 5.88579 29.972 4.07641C30.0402 3.81267 29.9817 3.52768 29.8194 3.3333Z" fill="#C9AB64"/>
</svg>
