<svg width="24" height="24" viewBox="0 0 24 24" fill="none" xmlns="http://www.w3.org/2000/svg">
<rect width="24" height="24" fill="#FFAC52"/>
<path d="M6.5902 8.60559C6.66091 8.34631 6.82284 8.21361 7.07598 8.20748C7.3296 8.20183 7.49176 8.32864 7.56247 8.58791L8.85294 13.3078L16.9316 5.22915C17.132 5.0288 17.3677 4.92887 17.6387 4.92934C17.9098 4.92887 18.1455 5.0288 18.3459 5.22915C18.5462 5.4295 18.6464 5.66544 18.6464 5.93697C18.6464 6.20755 18.5462 6.44302 18.3459 6.64337L10.2672 14.7221L14.9871 16.0125C15.2464 16.0832 15.3732 16.2454 15.3675 16.499C15.3614 16.7522 15.2287 16.9141 14.9694 16.9848L5.74167 19.0354C5.37633 19.1179 5.06403 19.0295 4.80476 18.7702C4.54548 18.511 4.4571 18.1987 4.53959 17.8333L6.5902 8.60559Z" fill="#EFEFEF"/>
</svg>
