<svg width="24" height="24" viewBox="0 0 24 24" fill="none" xmlns="http://www.w3.org/2000/svg">
<rect width="24" height="24" fill="#5D8E55"/>
<path d="M10.4499 6.07465C10.6832 5.94132 10.8916 5.96198 11.0749 6.13665C11.2582 6.31198 11.2832 6.51632 11.1499 6.74965L8.7249 10.9997H20.1499C20.4332 10.9997 20.6706 11.0957 20.8619 11.2877C21.0539 11.479 21.1499 11.7163 21.1499 11.9997C21.1499 12.283 21.0539 12.5207 20.8619 12.7127C20.6706 12.904 20.4332 12.9997 20.1499 12.9997H8.7249L11.1499 17.2497C11.2832 17.483 11.2582 17.6873 11.0749 17.8627C10.8916 18.0373 10.6832 18.058 10.4499 17.9247L2.4749 12.8497C2.15824 12.6497 1.9999 12.3663 1.9999 11.9997C1.9999 11.633 2.15824 11.3497 2.4749 11.1497L10.4499 6.07465Z" fill="white"/>
</svg>
