<svg width="24" height="24" viewBox="0 0 24 24" fill="none" xmlns="http://www.w3.org/2000/svg">
<rect width="24" height="24" fill="#FC0000"/>
<path d="M12.7 17.9249C12.4667 18.0582 12.2583 18.0375 12.075 17.8629C11.8917 17.6875 11.8667 17.4832 12 17.2499L14.425 12.9999H3C2.71667 12.9999 2.47933 12.9039 2.288 12.7119C2.096 12.5205 2 12.2832 2 11.9999C2 11.7165 2.096 11.4789 2.288 11.2869C2.47933 11.0955 2.71667 10.9999 3 10.9999H14.425L12 6.74986C11.8667 6.51653 11.8917 6.31219 12.075 6.13686C12.2583 5.96219 12.4667 5.94153 12.7 6.07486L20.675 11.1499C20.9917 11.3499 21.15 11.6332 21.15 11.9999C21.15 12.3665 20.9917 12.6499 20.675 12.8499L12.7 17.9249Z" fill="white"/>
</svg>
