<svg width="30" height="30" viewBox="0 0 30 30" fill="none" xmlns="http://www.w3.org/2000/svg">
<path d="M14.9752 29.4643C14.9253 29.4643 14.8255 29.4643 14.7756 29.4643C14.7257 29.4643 14.6757 29.4643 14.6258 29.4643C13.1283 29.4643 12.3796 28.9286 11.4811 28.125C10.8322 27.5893 10.2332 27.0535 9.53434 26.8928C9.18494 26.8393 8.83549 26.7857 8.53599 26.7857C7.93699 26.7857 7.48774 26.8928 7.13834 26.9999C6.93869 27.0535 6.73899 27.1071 6.58924 27.1071C6.43949 27.1071 6.28974 27.0535 6.23984 26.7857C6.18994 26.5178 6.13999 26.3035 6.09009 26.0893C5.99024 25.4999 5.89044 25.125 5.69074 25.0714C3.34464 24.6428 2.64584 24 2.49609 23.5714C2.49609 23.4643 2.49609 23.4107 2.49609 23.3572C2.49609 23.1965 2.59595 23.0357 2.69574 23.0357C6.28974 22.2857 7.93699 17.6786 7.98689 17.5179C8.18653 16.9822 8.23649 16.5001 8.13664 16.0715C7.88703 15.3214 7.08839 15 6.53928 14.7857C6.38953 14.7322 6.28968 14.6786 6.18989 14.625C5.14164 14.0893 5.04178 13.5536 5.09174 13.2858C5.14164 12.8036 5.69074 12.4822 6.09009 12.4822C6.18994 12.4822 6.28974 12.4822 6.38959 12.5357C6.88874 12.8036 7.28809 12.9643 7.68744 12.9643C8.18659 12.9643 8.43619 12.6965 8.43619 12.6429C8.43619 12.3215 8.3863 12.0001 8.3863 11.6786C8.28644 9.53578 8.13669 6.91074 8.6858 5.41076C10.2831 0.910624 13.7273 0.535645 14.7756 0.535645C14.8255 0.535645 15.2248 0.535645 15.2248 0.535645H15.2747C16.2731 0.535645 19.7173 0.910624 21.3646 5.41063C21.9137 6.91061 21.7639 9.58921 21.6641 11.6785V11.7857C21.6641 12.1071 21.6142 12.375 21.6142 12.6428C21.6641 12.6963 21.8638 12.9107 22.313 12.9642C22.6624 12.9642 23.0618 12.8035 23.511 12.5356C23.6608 12.4821 23.8105 12.4285 23.9104 12.4285C24.0601 12.4285 24.2099 12.482 24.3596 12.5356C24.709 12.6963 24.9586 13.0178 24.9586 13.3392C24.9586 13.6606 24.759 14.1428 23.8105 14.5714C23.7107 14.6249 23.6109 14.6785 23.4611 14.7321C22.912 14.9463 22.1134 15.2678 21.8638 16.0178C21.714 16.3928 21.7639 16.8749 22.0135 17.4642C22.0634 17.6785 23.6109 22.2857 27.2548 23.0357C27.4045 23.0892 27.5044 23.1964 27.4544 23.3571C27.4544 23.4107 27.4544 23.4643 27.4045 23.5714C27.2548 24 26.6558 24.5892 24.3097 25.0714C24.11 25.1249 24.0601 25.3928 23.9103 26.0892C23.8604 26.3035 23.8105 26.5713 23.7606 26.7856C23.7107 26.9999 23.6108 27.107 23.4112 27.107H23.3613C23.2614 27.107 23.0618 27.0535 22.8122 26.9999C22.4128 26.8927 21.9636 26.8391 21.4145 26.8391C21.0651 26.8391 20.7157 26.8927 20.4162 26.9463C19.7173 27.107 19.1183 27.6427 18.4694 28.1785C17.6208 28.9821 16.4727 29.4643 14.9752 29.4643Z" fill="#C9AB64"/>
<path d="M6.24045 26.7857C6.19056 26.5178 6.1406 26.3036 6.0907 26.0893C5.99085 25.5 5.89106 25.125 5.69135 25.0715C3.34525 24.6429 2.64645 24 2.4967 23.5715C2.4967 23.4643 2.4967 23.4108 2.4967 23.3572C2.4967 23.1965 2.59656 23.0358 2.69635 23.0358C6.29035 22.2858 7.9376 17.6787 7.9875 17.5179C8.18714 16.9822 8.2371 16.5001 8.13725 16.0715C7.88764 15.3215 7.089 15.0001 6.5399 14.7858C6.39014 14.7322 6.29029 14.6786 6.1905 14.6251C5.14225 14.0894 5.0424 13.5536 5.09235 13.2858C5.14225 13.0715 5.2421 12.9108 5.39185 12.7501C5.2421 12.6966 5.09235 12.643 4.9925 12.5359C4.89265 12.4823 4.79285 12.4823 4.6431 12.4823C4.19385 12.4823 3.59485 12.8037 3.495 13.2859C3.4451 13.5538 3.5449 14.0894 4.79285 14.6251C4.8927 14.6787 5.04245 14.7323 5.1922 14.7859C5.7912 15.0001 6.7396 15.3215 7.0391 16.0716C7.18885 16.4465 7.13895 16.9287 6.88935 17.518C6.7895 17.7323 4.9426 22.3394 0.749603 23.0358C0.599853 23.0358 0.5 23.1966 0.5 23.3573C0.5 23.4108 0.5 23.4644 0.549897 23.5715C0.699647 24.0001 1.49829 24.643 4.24375 25.0715C4.49335 25.1251 4.54325 25.5001 4.693 26.0894C4.7429 26.3036 4.79285 26.5715 4.84275 26.7858C4.9426 27.0536 5.09235 27.1072 5.292 27.1072C5.44175 27.1072 5.6414 27.0536 5.891 27C5.99085 27 6.1406 26.9465 6.29035 26.8929C6.29035 26.8929 6.24045 26.8393 6.24045 26.7857Z" fill="#C9AB64"/>
<path d="M21.3652 5.41063C21.9143 6.91061 21.7646 9.58921 21.6647 11.6785V11.7857C21.6647 12.1071 21.6148 12.375 21.6148 12.6428C21.6647 12.6963 21.8644 12.9107 22.3137 12.9642C22.5133 12.9642 22.713 12.9107 22.9127 12.857C22.7629 12.8035 22.6631 12.6963 22.6631 12.6963C22.6631 12.4285 22.713 12.107 22.713 11.8392V11.732C22.8128 9.58921 23.0125 6.96416 22.3636 5.46418C20.4667 0.910624 16.4734 0.535645 15.3253 0.535645H15.2754C16.2737 0.535645 19.718 0.910624 21.3652 5.41063Z" fill="#C9AB64"/>
<path d="M7.38739 12.6428C7.38739 12.6428 7.28754 12.7499 7.08789 12.857C7.28754 12.9106 7.48724 12.9642 7.68689 12.9642C8.18604 12.9642 8.43564 12.6963 8.43564 12.6428C8.43564 12.3214 8.38574 11.9999 8.38574 11.6785C8.28589 9.53566 8.13614 6.91061 8.68524 5.41063C10.2826 0.910624 13.7268 0.535645 14.7751 0.535645C14.7751 0.535645 14.8749 0.535645 14.9747 0.535645C14.8749 0.535645 14.7251 0.535645 14.7251 0.535645C13.5271 0.535645 9.53379 0.910624 7.68689 5.41063C7.03799 6.91061 7.23764 9.58921 7.33749 11.6785C7.33749 12.0535 7.38739 12.3749 7.38739 12.6428Z" fill="#C9AB64"/>
<path d="M29.0508 23.0357C24.8578 22.2857 23.0608 17.6786 23.0109 17.4642C22.7613 16.9285 22.7114 16.4464 22.8612 16.0178C23.1607 15.2678 24.1091 14.9463 24.7081 14.7321C24.8578 14.6785 25.0076 14.6249 25.1074 14.5714C26.2056 14.0892 26.4053 13.6606 26.4053 13.3392C26.4053 13.0178 26.1058 12.6963 25.7064 12.5356C25.5567 12.4821 25.357 12.4285 25.2073 12.4285C25.1074 12.4285 24.9078 12.4285 24.758 12.5356C24.6582 12.5892 24.5584 12.6428 24.4086 12.6963C24.6582 12.8571 24.808 13.1249 24.808 13.3928C24.808 13.7142 24.6084 14.1963 23.6599 14.6249C23.56 14.6785 23.4602 14.7321 23.3105 14.7856C22.7614 14.9999 21.9627 15.3213 21.7131 16.0714C21.5634 16.4463 21.6133 16.9285 21.8629 17.5178C21.9128 17.732 23.4602 22.3392 27.1041 23.0892C27.2539 23.1428 27.3537 23.25 27.3038 23.4107C27.3038 23.4642 27.3038 23.5178 27.2539 23.6249C27.1041 24.0535 26.5051 24.6428 24.159 25.1249C23.9594 25.1785 23.9094 25.4999 23.7597 26.1428C23.7098 26.357 23.6598 26.6249 23.6099 26.8392C23.6099 26.8927 23.56 26.9463 23.56 26.9999C23.7098 26.9999 23.8595 27.0534 24.0093 27.107C24.2589 27.1606 24.4585 27.2142 24.6083 27.2142H24.6582C24.8578 27.2142 25.0076 27.107 25.0575 26.8928C25.1074 26.6249 25.1574 26.4106 25.2073 26.1964C25.357 25.5535 25.4069 25.2321 25.6565 25.1785C28.4019 24.7499 29.0509 24.1071 29.2505 23.6785C29.3004 23.625 29.3004 23.5714 29.3004 23.4643C29.3004 23.1964 29.2006 23.0357 29.0508 23.0357Z" fill="#C9AB64"/>
<path d="M14.975 30C14.9251 30 14.8252 30 14.7753 30C14.7254 30 14.6755 30 14.6256 30C12.6788 30 11.7305 29.4107 10.6822 28.6071C9.98335 28.0714 9.33445 27.5893 8.6356 27.4821C8.23625 27.375 7.88685 27.3214 7.4875 27.3214C6.8386 27.3214 6.33939 27.4286 5.9401 27.5357C5.6905 27.5892 5.44095 27.6428 5.24125 27.6428C4.64225 27.6428 4.39265 27.2142 4.34275 26.9464C4.29285 26.6785 4.2429 26.4107 4.193 26.1964C4.1431 26.0357 4.09315 25.7143 4.04325 25.5535C1.69715 25.125 0.399353 24.5893 0.0998528 23.7321C0.0498971 23.625 0 23.5179 0 23.3572C0 22.9286 0.249603 22.5536 0.648897 22.4464C4.59229 21.75 6.33939 17.4107 6.43925 17.25C6.63889 16.8214 6.68885 16.4464 6.589 16.2322C6.38935 15.75 5.54075 15.4286 5.0416 15.2679C4.84195 15.2143 4.6922 15.1607 4.59235 15.1072C3.09485 14.4643 2.8952 13.7143 2.995 13.1786C3.14475 12.2143 4.4925 11.7322 5.19135 12.0536C5.6905 12.3215 6.08985 12.4286 6.4892 12.4286C6.63895 12.4286 6.7887 12.375 6.88856 12.375C6.88856 12.1608 6.88856 11.9464 6.83866 11.7322C6.68891 9.53571 6.53916 6.80356 7.23801 5.19641C9.23466 0.374979 13.4776 0 14.7255 0H15.3245C16.5724 0 20.8154 0.374979 22.8619 5.19641C23.5608 6.80356 23.361 9.53571 23.2613 11.7322V11.8393C23.2613 12.0536 23.2613 12.2143 23.2114 12.375C23.3112 12.4286 23.411 12.4286 23.5109 12.4286C23.8104 12.4286 24.2097 12.2679 24.7089 12.0536C24.9585 11.9464 25.208 11.8929 25.3578 11.8929C25.6074 11.8929 25.8569 11.9464 26.0566 12.0536C26.6556 12.2679 27.055 12.8036 27.055 13.3393C27.055 14.0357 26.5059 14.625 25.4576 15.1072C25.3578 15.1607 25.208 15.2143 25.0583 15.2679C24.5092 15.4286 23.6606 15.75 23.4609 16.2322C23.361 16.5 23.411 16.8215 23.6107 17.25V17.3036C23.8103 17.7857 25.5075 21.8571 29.3011 22.5536C29.7005 22.6071 30 23.0357 30 23.4643C30 23.5715 29.9501 23.7322 29.9002 23.8393C29.5508 24.6429 28.4026 25.2322 26.0565 25.6072C26.0067 25.7679 25.9567 26.0893 25.9068 26.1965C25.8569 26.4643 25.8069 26.6786 25.757 26.9465C25.6572 27.3751 25.3078 27.6429 24.9084 27.6429C24.7088 27.6429 24.4592 27.5893 24.1597 27.5357C23.7104 27.4286 23.2113 27.375 22.6123 27.375C22.2629 27.375 21.8635 27.4286 21.5142 27.4822C20.8153 27.5893 20.1664 28.125 19.4676 28.6072C18.1696 29.5179 16.6721 30 14.975 30ZM14.7753 28.9286C14.8752 28.9286 14.9251 28.9286 14.975 28.9286C16.4725 28.9286 17.7204 28.5536 18.8186 27.6964C19.5673 27.1071 20.366 26.5178 21.2645 26.3571C21.7137 26.3036 22.1131 26.25 22.5124 26.25C23.2112 26.25 23.7603 26.3571 24.2595 26.4642C24.5091 26.5178 24.6588 26.5178 24.7586 26.5178C24.8085 26.3035 24.8585 26.0892 24.9084 25.9285C25.0581 25.2321 25.158 24.5892 25.757 24.5356C27.9034 24.1606 28.6022 23.732 28.8518 23.5177C24.7087 22.607 22.8618 18.2142 22.6622 17.6785C22.3627 16.9821 22.2628 16.3392 22.5124 15.8034C22.9118 14.8392 24.0099 14.4642 24.6588 14.2499C24.8086 14.1963 24.9583 14.1427 25.0582 14.0891C25.8568 13.7677 26.0565 13.4463 26.0565 13.3391C26.0565 13.2856 25.9567 13.1249 25.7071 13.0177C25.5075 12.9105 25.2579 12.9105 25.158 12.9641C24.559 13.232 24.0599 13.3927 23.5607 13.4463C22.8119 13.3927 22.4625 13.0713 22.3627 12.9641C22.2628 12.857 22.2129 12.6963 22.2129 12.5355C22.2129 12.2677 22.2628 11.9998 22.2628 11.6784V11.5713C22.3627 9.48197 22.5124 6.91054 21.9633 5.51766C20.1663 1.39263 16.4226 1.0712 15.3244 1.0712H15.2746H14.7754C13.6773 1.0712 9.93351 1.39263 8.18641 5.62476C7.58741 7.01764 7.73716 9.58907 7.88691 11.6784C7.88691 11.9998 7.93681 12.3212 7.93681 12.6426C7.93681 12.8034 7.88691 12.9105 7.78706 13.0176C7.6872 13.1248 7.28791 13.4998 6.53916 13.4998C6.04001 13.4998 5.44101 13.3391 4.84201 13.0176C4.84201 13.0176 4.79211 13.0176 4.69226 13.0176C4.39276 13.0176 4.04337 13.2319 4.04337 13.3926C4.04337 13.4462 4.19312 13.7676 5.04172 14.1426C5.14157 14.1962 5.24136 14.2498 5.39111 14.2498C6.08997 14.4641 7.18811 14.8391 7.58747 15.8034C7.78711 16.3391 7.73722 16.9819 7.43772 17.6784C7.18811 18.2677 5.29132 22.5534 1.19812 23.4641C1.44772 23.6784 2.19647 24.1605 4.39276 24.482C4.99176 24.5891 5.09161 25.232 5.24136 25.9284C5.29126 26.1427 5.34122 26.357 5.39111 26.5713C5.54086 26.5713 5.69061 26.5177 5.89026 26.4641C6.28961 26.3569 6.88861 26.2498 7.63736 26.2498C8.03672 26.2498 8.48597 26.3034 8.88526 26.357C9.83366 26.5177 10.5824 27.107 11.3312 27.6963C12.2796 28.3927 13.0783 28.9284 14.7255 28.9284C14.6256 28.9285 14.6755 28.9286 14.7753 28.9286C14.7254 28.9286 14.7254 28.9286 14.7753 28.9286Z" fill="#C9AB64"/>
</svg>
