<svg width="30" height="30" viewBox="0 0 30 30" fill="none" xmlns="http://www.w3.org/2000/svg">
<path d="M29.9999 14.8458C30.0167 11.3689 26.4372 9.50589 24.3002 11.8823C21.7717 9.80715 18.1192 8.81794 14.5177 8.90075L16.6369 1.22681L22.4431 2.8489C22.049 4.83708 23.3806 6.98001 25.1857 6.93093C28.9152 6.75594 28.9161 0.432434 25.1857 0.257073C24.1903 0.257073 23.3188 0.873461 22.8189 1.79935L16.431 0.0150141C16.1917 -0.0516832 15.9488 0.10944 15.8721 0.387095L13.5068 8.95283C10.5608 9.18702 7.72309 10.1451 5.64834 11.8268C3.50412 9.53175 -0.0220019 11.4053 0.000103436 14.8454C0.000103436 16.2438 0.610843 17.5429 1.6138 18.2777C0.430527 33.8725 29.3295 33.9156 28.2738 18.3575C29.3444 17.6463 30.0053 16.3019 29.9999 14.8458ZM8.37962 17.5422C8.37962 16.188 9.3412 15.0515 10.4869 15.0515C13.2172 15.1793 13.2469 19.8829 10.4869 19.995C9.34089 19.995 8.37962 18.896 8.37962 17.5422ZM19.834 24.5259C18.0984 26.9075 11.8982 26.9083 10.1635 24.5259C9.65321 23.8975 10.4253 22.9769 10.9568 23.5854C12.2724 25.4458 17.7255 25.4447 19.042 23.5854C19.5684 22.9791 20.3478 23.8971 19.834 24.5259ZM19.5438 20.0044C18.4022 20.0044 17.4435 18.902 17.4435 17.5422C17.571 14.253 21.496 14.2144 21.6097 17.5422C21.6097 18.902 20.6854 20.0044 19.5438 20.0044Z" fill="#C9AB64"/>
</svg>
