<svg width="1222" height="300" viewBox="0 0 1222 300" fill="none" xmlns="http://www.w3.org/2000/svg">
<path d="M1009.81 49.9248C1058.56 49.9665 1054.08 116.275 1054.06 142.8C1054.03 176.65 1062.34 244.975 1036.23 270.983C1009.61 297.483 956.421 310.708 929.846 288.583C903.271 266.45 947.763 49.8748 1009.81 49.9248V49.9248ZM1134.32 50.0248C1085.57 49.9831 1089.95 116.3 1089.92 142.825C1089.9 176.683 1081.47 244.991 1107.55 271.041C1134.11 297.591 1187.29 310.891 1213.9 288.816C1240.5 266.733 1196.36 50.0748 1134.31 50.0248H1134.32Z" fill="#C9AB64"/>
<path fill-rule="evenodd" clip-rule="evenodd" d="M1063.77 0H1080.44L1080.35 120.783C1080.33 138.292 1072.52 148.325 1063.69 153.475C1058.66 156.368 1053.01 158.004 1047.22 158.242H1047V141.575H1046.92H1046.96C1047.75 141.527 1048.54 141.427 1049.32 141.275C1051.02 140.942 1053.2 140.3 1055.3 139.075C1058.97 136.942 1063.66 132.408 1063.68 120.767L1063.77 0Z" fill="#C9AB64"/>
<path fill-rule="evenodd" clip-rule="evenodd" d="M1080.44 0H1063.77L1063.68 120.767C1063.66 138.275 1071.45 148.325 1080.27 153.492C1085.29 156.39 1090.94 158.031 1096.73 158.275H1096.96L1096.98 149.942C1096.98 141.608 1097 141.608 1097 141.608H1097.07H1097.03C1096.95 141.608 1096.81 141.608 1096.6 141.583C1093.82 141.338 1091.12 140.491 1088.7 139.1C1085.03 136.958 1080.34 132.425 1080.35 120.783L1080.44 0Z" fill="#C9AB64"/>
<path d="M478 93L458 139" stroke="#C9AB64" stroke-width="32" stroke-linecap="round" stroke-linejoin="bevel"/>
<path d="M540 156L517 208" stroke="#C9AB64" stroke-width="32" stroke-linecap="round" stroke-linejoin="bevel"/>
<path d="M738 95L758 141" stroke="#C9AB64" stroke-width="32" stroke-linecap="round" stroke-linejoin="bevel"/>
<path d="M676 157L699 210" stroke="#C9AB64" stroke-width="32" stroke-linecap="round" stroke-linejoin="bevel"/>
<path d="M606 179V227" stroke="#C9AB64" stroke-width="32" stroke-linecap="round" stroke-linejoin="bevel"/>
<path d="M464 74C552.32 212.225 660 214.082 748.8 78.9513L752 74" stroke="#C9AB64" stroke-width="32" stroke-linecap="round" stroke-linejoin="bevel"/>
<path d="M272.727 161.113V138.929C272.727 62.3225 217.672 0 150 0C82.3282 0 27.2727 62.3225 27.2727 138.929V161.113C10.7236 175.209 0 197.622 0 222.817C0 265.376 30.5855 300 68.1818 300C75.7127 300 81.8182 293.089 81.8182 284.563V161.071C81.8182 152.546 75.7127 145.635 68.1818 145.635C63.5127 145.635 58.9527 146.171 54.5455 147.188V138.93C54.5455 79.348 97.3664 30.8741 150 30.8741C202.634 30.8741 245.455 79.348 245.455 138.93V147.188C241.047 146.171 236.487 145.635 231.818 145.635C224.287 145.635 218.182 152.546 218.182 161.071V284.563C218.182 293.089 224.287 300 231.818 300C269.414 300 300 265.376 300 222.817C300 197.621 289.276 175.209 272.727 161.113Z" fill="#C9AB64"/>
</svg>
