<svg width="30" height="30" viewBox="0 0 30 30" fill="none" xmlns="http://www.w3.org/2000/svg">
<g clip-path="url(#clip0_21_608)">
<path d="M21.6724 30H8.32758C3.72416 30 0 26.2758 0 21.6724V8.32758C0 3.72416 3.72416 0 8.32758 0H21.6724C26.2758 0 30 3.72416 30 8.32758V21.6724C30 26.2758 26.2758 30 21.6724 30Z" fill="#C9AB64"/>
<path d="M22.7589 8.27593C22.7589 7.70698 22.2934 7.24146 21.7244 7.24146C21.1555 7.24146 20.6899 7.70698 20.6899 8.27593C20.6899 8.84487 21.1555 9.3104 21.7244 9.3104C22.2934 9.31046 22.7589 8.84493 22.7589 8.27593Z" fill="#35455C"/>
<path d="M15 19.6552C12.5173 19.6552 10.3449 17.4828 10.3449 15C10.3449 12.5173 12.5173 10.3449 15 10.3449C17.4828 10.3449 19.6552 12.5173 19.6552 15C19.6552 17.4828 17.4828 19.6552 15 19.6552ZM15 8.27588C11.2759 8.27588 8.27588 11.2759 8.27588 15C8.27588 18.7242 11.2759 21.7242 15 21.7242C18.7242 21.7242 21.7242 18.7242 21.7242 15C21.7242 11.2759 18.7242 8.27588 15 8.27588Z" fill="#35455C"/>
<path d="M24.8277 21.9311C24.8277 23.5346 23.5346 24.8276 21.9312 24.8276H8.06904C6.46557 24.8276 5.17252 23.5345 5.17252 21.9311V8.06898C5.17252 6.46551 6.46563 5.17246 8.06904 5.17246H21.9312C23.5346 5.17246 24.8277 6.46557 24.8277 8.06898V21.9311ZM21.7243 3.10352H8.27594C5.43109 3.10352 3.10352 5.43109 3.10352 8.27594V21.7242C3.10352 24.569 5.43109 26.8966 8.27594 26.8966H21.7242C24.569 26.8966 26.8966 24.569 26.8966 21.7242V8.27588C26.8966 5.43109 24.569 3.10352 21.7243 3.10352Z" fill="#35455C"/>
</g>
<defs>
<clipPath id="clip0_21_608">
<rect width="30" height="30" fill="white"/>
</clipPath>
</defs>
</svg>
